<svg version="1.1" xmlns="http://www.w3.org/2000/svg" xmlns:xlink="http://www.w3.org/1999/xlink" width="512" height="512" viewBox="0,0,256,256"><g fill="#d9d9d9" fill-rule="nonzero" stroke="none" stroke-width="1" stroke-linecap="butt" stroke-linejoin="miter" stroke-miterlimit="10" stroke-dasharray="" stroke-dashoffset="0" font-family="none" font-weight="none" font-size="none" text-anchor="none" style="mix-blend-mode: normal"><g transform="translate(0,5.325) scale(10.66667,10.66667)"><path d="M18.71,8.21c-0.18777,-0.18931 -0.44336,-0.2958 -0.71,-0.2958c-0.26664,0 -0.52223,0.10649 -0.71,0.2958l-4.58,4.58c-0.18777,0.18931 -0.44336,0.2958 -0.71,0.2958c-0.26664,0 -0.52223,-0.10649 -0.71,-0.2958l-4.58,-4.58c-0.18777,-0.18931 -0.44336,-0.2958 -0.71,-0.2958c-0.26664,0 -0.52223,0.10649 -0.71,0.2958c-0.38772,0.39004 -0.38772,1.01996 0,1.41l4.59,4.59c1.17127,1.16981 3.06873,1.16981 4.24,0l4.59,-4.59c0.38772,-0.39004 0.38772,-1.01996 0,-1.41z"></path></g></g></svg>