<svg version="1.1" xmlns="http://www.w3.org/2000/svg" xmlns:xlink="http://www.w3.org/1999/xlink" width="512" height="512" viewBox="0,0,256,256"><g fill="#d9d9d9" fill-rule="nonzero" stroke="none" stroke-width="1" stroke-linecap="butt" stroke-linejoin="miter" stroke-miterlimit="10" stroke-dasharray="" stroke-dashoffset="0" font-family="none" font-weight="none" font-size="none" text-anchor="none" style="mix-blend-mode: normal"><g transform="scale(0.5,0.5)"><g><path d="M480,224h-448c-17.673,0 -32,14.327 -32,32c0,17.673 14.327,32 32,32h448c17.673,0 32,-14.327 32,-32c0,-17.673 -14.327,-32 -32,-32z"></path><path d="M32,138.667h448c17.673,0 32,-14.327 32,-32c0,-17.673 -14.327,-32 -32,-32h-448c-17.673,0 -32,14.327 -32,32c0,17.673 14.327,32 32,32z"></path><path d="M480,373.333h-448c-17.673,0 -32,14.327 -32,32c0,17.673 14.327,32 32,32h448c17.673,0 32,-14.327 32,-32c0,-17.673 -14.327,-32 -32,-32z"></path></g></g></g></svg>