<svg version="1.1" xmlns="http://www.w3.org/2000/svg" xmlns:xlink="http://www.w3.org/1999/xlink" width="512" height="512" viewBox="0,0,256,256"><g fill="#28374a" fill-rule="nonzero" stroke="none" stroke-width="1" stroke-linecap="butt" stroke-linejoin="miter" stroke-miterlimit="10" stroke-dasharray="" stroke-dashoffset="0" font-family="none" font-weight="none" font-size="none" text-anchor="none" style="mix-blend-mode: normal"><g transform="translate(0.32472,-0.26072) scale(10.66667,10.66667)"><path d="M14.121,12l3.879,-3.883c0.52269,-0.59407 0.49402,-1.49198 -0.0655,-2.0515c-0.55952,-0.55952 -1.45743,-0.58819 -2.0515,-0.0655l-3.883,3.879l-3.89,-3.891c-0.58597,-0.58597 -1.53603,-0.58597 -2.122,0c-0.58597,0.58597 -0.58597,1.53603 0,2.122l3.891,3.89l-3.879,3.882c-0.41448,0.37051 -0.59005,0.93987 -0.4562,1.47946c0.13385,0.53959 0.55515,0.96089 1.09474,1.09474c0.53959,0.13385 1.10895,-0.04172 1.47946,-0.4562l3.882,-3.879l3.878,3.879c0.58597,0.58597 1.53603,0.58597 2.122,0c0.58597,-0.58597 0.58597,-1.53603 0,-2.122z"></path></g></g></svg>