<svg version="1.1" xmlns="http://www.w3.org/2000/svg" xmlns:xlink="http://www.w3.org/1999/xlink" width="512" height="512" viewBox="0,0,256,256"><g fill="#29394e" fill-rule="nonzero" stroke="none" stroke-width="1" stroke-linecap="butt" stroke-linejoin="miter" stroke-miterlimit="10" stroke-dasharray="" stroke-dashoffset="0" font-family="none" font-weight="none" font-size="none" text-anchor="none" style="mix-blend-mode: normal"><g transform="scale(10.66667,10.66667)"><path d="M12,0c-6.62742,0 -12,5.37258 -12,12c0,6.62742 5.37258,12 12,12c6.62742,0 12,-5.37258 12,-12c-0.00716,-6.62445 -5.37555,-11.99284 -12,-12zM12,22c-5.52285,0 -10,-4.47715 -10,-10c0,-5.52285 4.47715,-10 10,-10c5.52285,0 10,4.47715 10,10c-0.00606,5.52033 -4.47967,9.99394 -10,10z"></path><path d="M12,10h-1c-0.55228,0 -1,0.44772 -1,1c0,0.55228 0.44772,1 1,1h1v6c0,0.55228 0.44772,1 1,1c0.55228,0 1,-0.44772 1,-1v-6c0,-1.10457 -0.89543,-2 -2,-2z"></path><circle cx="12" cy="6.5" r="1.5"></circle></g></g></svg>