<svg version="1.1" xmlns="http://www.w3.org/2000/svg" xmlns:xlink="http://www.w3.org/1999/xlink" width="512" height="512" viewBox="0,0,256,256"><g fill="#d9d9d9" fill-rule="nonzero" stroke="none" stroke-width="1" stroke-linecap="butt" stroke-linejoin="miter" stroke-miterlimit="10" stroke-dasharray="" stroke-dashoffset="0" font-family="none" font-weight="none" font-size="none" text-anchor="none" style="mix-blend-mode: normal"><g transform="translate(0.00026,0.00002) scale(0.4983,0.4983)"><g><path d="M504.352,459.061l-99.435,-99.477c74.402,-99.427 54.115,-240.344 -45.312,-314.746c-99.427,-74.402 -240.344,-54.115 -314.746,45.312c-74.402,99.427 -54.115,240.344 45.312,314.746c79.868,59.766 189.565,59.766 269.434,0l99.477,99.477c12.501,12.501 32.769,12.501 45.269,0c12.501,-12.501 12.501,-32.769 0,-45.269zM225.717,385.696c-88.366,0 -160,-71.634 -160,-160c0,-88.366 71.634,-160 160,-160c88.366,0 160,71.634 160,160c-0.094,88.326 -71.673,159.906 -160,160z"></path></g></g></g></svg>